<svg xmlns="http://www.w3.org/2000/svg" viewBox="0 0 1366 768" width="1366" height="768" shape-rendering="geometricPrecision">
  <rect width="1366" height="768" fill="#FFFFFF"/>

  <!-- Title -->
  <text x="60" y="62" font-family="'Segoe UI','Helvetica Neue',Arial,sans-serif" font-size="30" font-weight="700" fill="#0B1E3B">Comparative Line Chart</text>

  <!-- Legend -->
  <g font-family="'Segoe UI','Helvetica Neue',Arial,sans-serif" font-size="15" fill="#334155">
    <rect x="60"  y="92" width="14" height="14" rx="2" fill="#1E90FF"/>
    <text x="82"  y="105">Actual</text>
    <rect x="148" y="92" width="14" height="14" rx="2" fill="#8BC34A"/>
    <text x="170" y="105">Budget</text>
  </g>

  <!-- Comparison toggle (OFF) -->
  <g font-family="'Segoe UI','Helvetica Neue',Arial,sans-serif">
    <text x="1226" y="105" font-size="15" fill="#64748B">Comparison</text>
    <g transform="translate(1304, 92)">
      <rect x="0" y="0" width="40" height="22" rx="11" fill="#CBD5E1"/>
      <circle cx="11" cy="11" r="8" fill="#FFFFFF"/>
    </g>
  </g>

  <!-- Grid lines -->
  <g stroke="#E2E8F0" stroke-width="1">
    <line x1="92" y1="680" x2="1307" y2="680"/>
    <line x1="92" y1="552.5" x2="1307" y2="552.5"/>
    <line x1="92" y1="425" x2="1307" y2="425"/>
    <line x1="92" y1="297.5" x2="1307" y2="297.5"/>
    <line x1="92" y1="170" x2="1307" y2="170"/>
  </g>

  <!-- Y axis labels -->
  <g font-family="'Segoe UI','Helvetica Neue',Arial,sans-serif" font-size="14" fill="#94A3B8" text-anchor="end">
    <text x="80" y="685">0</text>
    <text x="80" y="557.5">200 000</text>
    <text x="80" y="430">400 000</text>
    <text x="80" y="302.5">600 000</text>
    <text x="80" y="175">800 000</text>
  </g>

  <!-- X axis labels (1..12) -->
  <g font-family="'Segoe UI','Helvetica Neue',Arial,sans-serif" font-size="14" fill="#94A3B8" text-anchor="middle">
    <text x="92.0" y="708">1</text>
    <text x="202.5" y="708">2</text>
    <text x="312.9" y="708">3</text>
    <text x="423.4" y="708">4</text>
    <text x="533.8" y="708">5</text>
    <text x="644.3" y="708">6</text>
    <text x="754.7" y="708">7</text>
    <text x="865.2" y="708">8</text>
    <text x="975.6" y="708">9</text>
    <text x="1086.1" y="708">10</text>
    <text x="1196.5" y="708">11</text>
    <text x="1307.0" y="708">12</text>
  </g>

  <!-- Curves -->
  <g fill="none" stroke-linecap="round" stroke-linejoin="round" stroke-width="3">
    <path d="M 92.00 648.13 C 110.41 642.71, 165.64 626.56, 202.45 615.61 C 239.27 604.67, 276.09 593.72, 312.91 582.46 C 349.73 571.20, 386.55 559.73, 423.36 548.04 C 460.18 536.35, 497.00 524.45, 533.82 512.34 C 570.64 500.22, 607.45 487.90, 644.27 475.36 C 681.09 462.82, 717.91 450.07, 754.73 437.11 C 791.55 424.15, 828.36 410.87, 865.18 397.59 C 902.00 384.31, 938.82 371.03, 975.64 357.43 C 1012.45 343.82, 1049.27 330.12, 1086.09 315.99 C 1122.91 301.86, 1159.73 287.51, 1196.55 272.64 C 1233.36 257.76, 1288.59 234.39, 1307.00 226.74" stroke="#8BC34A"/>
    <path d="M 92.00 649.40 C 110.41 643.88, 165.64 627.62, 202.45 616.25 C 239.27 604.88, 276.09 593.19, 312.91 581.19 C 349.73 569.18, 386.55 556.96, 423.36 544.21 C 460.18 531.46, 497.00 518.18, 533.82 504.69 C 570.64 491.19, 607.45 474.62, 644.27 463.25 C 681.09 451.88, 717.91 446.78, 754.73 436.48 C 791.55 426.17, 828.36 413.63, 865.18 401.41 C 902.00 389.19, 938.82 377.19, 975.64 363.16 C 1012.45 349.14, 1049.27 333.94, 1086.09 317.26 C 1122.91 300.58, 1159.73 282.20, 1196.55 263.07 C 1233.36 243.95, 1288.59 212.61, 1307.00 202.51" stroke="#1E90FF"/>
  </g>
</svg>